<svg width="48" height="32" viewBox="0 0 48 32" fill="none" xmlns="http://www.w3.org/2000/svg">
<path d="M20 22H21.48L17.64 5.12005C17.4374 4.23622 16.9417 3.44693 16.2337 2.88048C15.5256 2.31404 14.6468 2.00374 13.74 2.00005H6V6.00005H13.74L16.58 18.5H16.56C14.417 19.1459 12.497 20.3775 11.0164 22.056C9.53581 23.7345 8.55343 25.7932 8.18 28H0V32H12V30C12 25.58 15.58 22 20 22ZM38 10H36.36L33.66 2.62005C33.3843 1.85001 32.8766 1.18448 32.2067 0.715209C31.5368 0.245943 30.7379 -0.00393088 29.92 4.67614e-05H22V4.00005H29.92L32.12 10H20.8L21.72 14H30C29.14 15.16 28.5 16.5 28.2 18H22.62L23.54 22H28.2C29.08 26.46 32.82 29.76 37.5 29.98C43.1 30.24 48 25.6 48 19.98C48 14.4 43.6 10 38 10ZM38 26C34.64 26 32 23.36 32 20C32 18.14 32.82 16.54 34.1 15.44L36.02 20.72L39.78 19.36L37.84 14.02C37.9 14.02 37.96 14 38.02 14C41.38 14 44.02 16.64 44.02 20C44.02 23.36 41.36 26 38 26Z" fill="url(#paint0_linear)"/>
<defs>
<linearGradient id="paint0_linear" x1="24" y1="0" x2="24" y2="32" gradientUnits="userSpaceOnUse">
<stop stop-color="#439CA1"/>
<stop offset="1" stop-color="#7C84C9"/>
</linearGradient>
</defs>
</svg>
